HIERARCHY
ROOT joint_Root
{
	OFFSET 0.0 0.0 0.0
	CHANNELS 6 Xposition Yposition Zposition Zrotation Xrotation Yrotation 
	JOINT Hips
	{
		OFFSET -0.726466 93.3139 -2.00062
		CHANNELS 6 Xposition Yposition Zposition Zrotation Xrotation Yrotation 
		JOINT Spine
		{
			OFFSET 15.7357 0.0 0.0
			CHANNELS 6 Xposition Yposition Zposition Zrotation Xrotation Yrotation 
			JOINT Chest
			{
				OFFSET 8.98455 -0.406207 0.0
				CHANNELS 6 Xposition Yposition Zposition Zrotation Xrotation Yrotation 
				JOINT Neck
				{
					OFFSET 16.3773 0.0 0.0
					CHANNELS 6 Xposition Yposition Zposition Zrotation Xrotation Yrotation 
					JOINT Head
					{
						OFFSET 6.45672 0.0 0.0
						CHANNELS 6 Xposition Yposition Zposition Zrotation Xrotation Yrotation 
						End Site
						{
							OFFSET 0.0 0.0 0.0
						}
					}
				}
				JOINT Shoulder_L
				{
					OFFSET 12.9942 -0.242716 4.98039
					CHANNELS 6 Xposition Yposition Zposition Zrotation Xrotation Yrotation 
					JOINT UpperArm_L
					{
						OFFSET 5.34809 0.0 0.0
						CHANNELS 6 Xposition Yposition Zposition Zrotation Xrotation Yrotation 
						JOINT LowerArm_L
						{
							OFFSET 24.3286 1.87007e-05 0.0
							CHANNELS 6 Xposition Yposition Zposition Zrotation Xrotation Yrotation 
							JOINT Hand_L
							{
								OFFSET 22.2916 0.0 0.0
								CHANNELS 6 Xposition Yposition Zposition Zrotation Xrotation Yrotation 
								End Site
								{
									OFFSET 0.0 0.0 0.0
								}
							}
						}
					}
				}
				JOINT Shoulder_R
				{
					OFFSET 12.9945 -0.242716 -4.98039
					CHANNELS 6 Xposition Yposition Zposition Zrotation Xrotation Yrotation 
					JOINT UpperArm_R
					{
						OFFSET -5.34813 0.0 0.0
						CHANNELS 6 Xposition Yposition Zposition Zrotation Xrotation Yrotation 
						JOINT LowerArm_R
						{
							OFFSET -24.3289 0.000322201 0.0
							CHANNELS 6 Xposition Yposition Zposition Zrotation Xrotation Yrotation 
							JOINT Hand_R
							{
								OFFSET -22.2915 -0.000108084 0.0
								CHANNELS 6 Xposition Yposition Zposition Zrotation Xrotation Yrotation 
								End Site
								{
									OFFSET 0.0 0.0 0.0
								}
							}
						}
					}
				}
			}
		}
		JOINT UpperLeg_L
		{
			OFFSET -2.19248 -6.46944 0.0
			CHANNELS 6 Xposition Yposition Zposition Zrotation Xrotation Yrotation 
			JOINT LowerLeg_L
			{
				OFFSET 39.0811 0.0 -1.23785e-05
				CHANNELS 6 Xposition Yposition Zposition Zrotation Xrotation Yrotation 
				JOINT Foot_L
				{
					OFFSET 40.9854 0.0 -1.26872e-05
					CHANNELS 6 Xposition Yposition Zposition Zrotation Xrotation Yrotation 
					JOINT Toes_L
					{
						OFFSET 11.7543 0.0 0.0
						CHANNELS 6 Xposition Yposition Zposition Zrotation Xrotation Yrotation 
						End Site
						{
							OFFSET 0.0 0.0 0.0
						}
					}
				}
			}
		}
		JOINT UpperLeg_R
		{
			OFFSET -2.19251 6.46944 0.0
			CHANNELS 6 Xposition Yposition Zposition Zrotation Xrotation Yrotation 
			JOINT LowerLeg_R
			{
				OFFSET -39.0811 -0.00228153 -0.0401928
				CHANNELS 6 Xposition Yposition Zposition Zrotation Xrotation Yrotation 
				JOINT Foot_R
				{
					OFFSET -40.9854 0.0 0.0
					CHANNELS 6 Xposition Yposition Zposition Zrotation Xrotation Yrotation 
					JOINT Toes_R
					{
						OFFSET -11.7543 0.0 0.0
						CHANNELS 6 Xposition Yposition Zposition Zrotation Xrotation Yrotation 
						End Site
						{
							OFFSET 0.0 0.0 0.0
						}
					}
				}
			}
		}
	}
}
MOTION
Frames:	9
Frame Time:	0.0333333
0.000000 0.000000 0.000000 0.000000 0.000000 -0.000000 -1.118680 92.602900 -1.613790 87.819700 -0.289959 2.078710 15.735700 0.000005 -0.000001 94.465400 86.335700 -95.331200 8.984550 -0.406207 -0.000000 -0.454305 0.632549 -1.728180 16.377300 -0.000001 -0.000001 3.595640 -2.488810 -0.086239 6.456720 -0.000001 -0.000000 1.234130 -1.670620 -7.232400 12.994200 -0.242716 4.980390 -89.758500 -0.716419 -71.369300 5.348090 -0.000007 -0.000001 -68.615200 34.222000 -11.978900 24.328600 0.000019 0.000005 1.484780 4.149400 -19.708300 22.291600 -0.000001 0.000005 4.373940 5.437560 -4.200330 12.994500 -0.242716 -4.980390 91.137800 -2.796380 -67.849200 -5.348130 -0.000001 -0.000004 -67.972400 -45.370100 -96.521700 -24.328900 0.000322 -0.000009 11.731200 4.278430 -70.238800 -22.291500 -0.000108 -0.000004 37.862300 5.149500 3.953540 -2.192480 -6.469440 -0.000000 -175.265000 -6.178320 -4.674070 39.081100 -0.000007 -0.000012 -0.098163 0.250610 21.390200 40.985400 -0.000006 -0.000013 -0.523356 3.629830 -64.853100 11.754300 -0.000000 0.000003 -0.000034 -0.000408 -16.593500 -2.192510 6.469440 -0.000001 -179.069000 14.120200 177.745000 -39.081100 -0.002282 -0.040193 0.002075 0.003865 17.923900 -40.985400 0.000008 0.000006 4.992250 7.556790 -64.464500 -11.754300 -0.000006 -0.000006 -0.007892 -0.087152 -20.121900
0.000000 0.000000 0.000000 0.000000 0.000000 -0.000000 -1.140760 92.593600 -1.555610 87.834400 -0.374811 2.183410 15.735700 0.000005 -0.000001 94.360600 86.311500 -95.181600 8.984550 -0.406207 -0.000000 -0.405506 0.619288 -1.639010 16.377300 -0.000001 -0.000001 3.668530 -2.681790 -0.014646 6.456720 -0.000001 -0.000000 1.297430 -1.851980 -7.242190 12.994200 -0.242716 4.980390 -89.760800 -0.711536 -71.420600 5.348090 -0.000007 -0.000001 -68.563700 33.579900 -11.986700 24.328600 0.000019 0.000005 1.546610 4.375950 -19.486600 22.291600 -0.000001 0.000005 4.536780 5.433640 -4.064370 12.994500 -0.242716 -4.980390 91.128500 -2.771500 -67.834300 -5.348130 -0.000001 -0.000004 -59.921700 -46.359000 -92.818600 -24.328900 0.000322 -0.000009 12.919000 3.388650 -75.549600 -22.291500 -0.000108 -0.000004 36.916900 5.205270 2.583600 -2.192480 -6.469440 -0.000000 -175.252000 -6.140910 -4.513680 39.081100 -0.000007 -0.000012 -0.098473 0.251283 21.399300 40.985400 -0.000006 -0.000013 -0.564812 3.524260 -64.910600 11.754300 -0.000000 0.000003 -0.000028 -0.000339 -16.590800 -2.192510 6.469440 -0.000001 -179.099000 14.021900 177.870000 -39.081100 -0.002282 -0.040193 0.003268 0.000176 17.977800 -40.985400 0.000008 0.000006 5.008450 7.550850 -64.537000 -11.754300 -0.000006 -0.000006 -0.008110 -0.088928 -20.194400
0.000000 0.000000 0.000000 0.000000 0.000000 -0.000000 -1.195340 92.570700 -1.521370 87.819100 -0.436931 2.180490 15.735700 0.000005 -0.000001 94.373000 86.315100 -95.141300 8.984550 -0.406207 -0.000000 -0.413173 0.616632 -1.533520 16.377300 -0.000001 -0.000001 3.730140 -2.821190 0.082873 6.456720 -0.000001 -0.000000 1.340930 -2.018960 -7.341000 12.994200 -0.242716 4.980390 -89.757900 -0.721941 -71.462900 5.348090 -0.000007 -0.000001 -68.384500 33.333900 -12.116000 24.328600 0.000019 0.000005 1.560270 4.414430 -19.487600 22.291600 -0.000001 0.000005 4.571030 5.436270 -4.155700 12.994500 -0.242716 -4.980390 91.132800 -2.782040 -67.834100 -5.348130 -0.000001 -0.000004 -51.257100 -47.233300 -88.606300 -24.328900 0.000322 -0.000009 14.597100 2.383050 -80.926700 -22.291500 -0.000108 -0.000004 35.482500 5.235290 1.817810 -2.192480 -6.469440 -0.000000 -175.200000 -6.260650 -4.567600 39.081100 -0.000007 -0.000012 -0.100136 0.253425 21.560600 40.985400 -0.000006 -0.000013 -0.580442 3.560310 -65.010700 11.754300 -0.000000 0.000003 -0.000030 -0.000363 -16.591700 -2.192510 6.469440 -0.000001 -179.057000 13.894500 177.816000 -39.081100 -0.002282 -0.040193 -0.000902 0.012924 18.111800 -40.985400 0.000008 0.000006 4.862870 7.475930 -64.592200 -11.754300 -0.000006 -0.000006 -0.007952 -0.087643 -20.141900
0.000000 0.000000 0.000000 0.000000 0.000000 -0.000000 -1.240910 92.574200 -1.488250 87.816200 -0.456416 2.233770 15.735700 0.000005 -0.000001 94.411100 86.306800 -95.136400 8.984550 -0.406207 -0.000000 -0.397189 0.619625 -1.447580 16.377300 -0.000001 -0.000001 3.778860 -2.924850 0.204306 6.456720 -0.000001 -0.000000 1.478100 -2.141120 -7.447820 12.994200 -0.242716 4.980390 -89.749200 -0.750219 -71.516900 5.348090 -0.000007 -0.000001 -68.163800 33.427500 -12.327000 24.328600 0.000019 0.000005 1.504750 4.210620 -19.685300 22.291600 -0.000001 0.000005 4.555020 5.436690 -4.170090 12.994500 -0.242716 -4.980390 91.110100 -2.732460 -67.879500 -5.348130 -0.000001 -0.000004 -42.957800 -47.710200 -84.657000 -24.328900 0.000322 -0.000009 16.287700 1.266930 -85.672100 -22.291500 -0.000108 -0.000004 33.757100 5.276930 0.707991 -2.192480 -6.469440 -0.000000 -175.144000 -6.260040 -4.447740 39.081100 -0.000007 -0.000012 -0.099767 0.253333 21.495400 40.985400 -0.000006 -0.000013 -0.620787 3.591090 -65.006600 11.754300 -0.000000 0.000003 -0.000027 -0.000328 -16.590400 -2.192510 6.469440 -0.000001 -179.008000 13.810800 177.911000 -39.081100 -0.002282 -0.040193 0.004549 -0.003747 18.093700 -40.985400 0.000008 0.000006 5.139880 7.411330 -64.661200 -11.754300 -0.000006 -0.000006 -0.007874 -0.087002 -20.115800
0.000000 0.000000 0.000000 0.000000 0.000000 -0.000000 -1.287420 92.563200 -1.465980 87.834600 -0.485992 2.260490 15.735700 0.000005 -0.000001 94.735800 86.296200 -95.449600 8.984550 -0.406207 -0.000000 -0.379235 0.662162 -1.424520 16.377300 -0.000001 -0.000001 3.870340 -3.036420 0.399795 6.456720 -0.000001 -0.000000 1.429790 -2.236540 -7.482530 12.994200 -0.242716 4.980390 -89.715400 -0.853003 -71.550400 5.348090 -0.000007 -0.000001 -68.031500 33.555300 -12.549100 24.328600 0.000019 0.000005 1.432490 3.916810 -20.106500 22.291600 -0.000001 0.000005 4.501330 5.437570 -4.200960 12.994500 -0.242716 -4.980390 91.076400 -2.643730 -67.835800 -5.348130 -0.000001 -0.000004 -36.357000 -47.682100 -81.802700 -24.328900 0.000322 -0.000009 18.399600 0.367812 -88.894000 -22.291500 -0.000108 -0.000004 32.780800 5.338470 -1.038640 -2.192480 -6.469440 -0.000000 -175.133000 -6.243740 -4.421920 39.081100 -0.000007 -0.000012 -0.100762 0.255298 21.538400 40.985400 -0.000006 -0.000013 -0.662361 3.527830 -65.043300 11.754300 -0.000000 0.000003 -0.000028 -0.000345 -16.591000 -2.192510 6.469440 -0.000001 -179.025000 13.806900 177.927000 -39.081100 -0.002282 -0.040193 -0.000067 0.010353 18.138300 -40.985400 0.000008 0.000006 4.889790 7.403160 -64.652000 -11.754300 -0.000006 -0.000006 -0.007912 -0.087311 -20.128400
0.000000 0.000000 0.000000 0.000000 0.000000 -0.000000 -1.310100 92.554200 -1.436110 87.784000 -0.503511 2.286520 15.735700 0.000005 -0.000001 95.332700 86.283100 -96.029200 8.984550 -0.406207 -0.000000 -0.359602 0.740105 -1.390030 16.377300 -0.000001 -0.000001 3.877150 -3.112690 0.610808 6.456720 -0.000001 -0.000000 1.541010 -2.374270 -7.404460 12.994200 -0.242716 4.980390 -89.706100 -0.884793 -71.621100 5.348090 -0.000007 -0.000001 -67.920400 33.559400 -12.743600 24.328600 0.000019 0.000005 1.457600 3.883940 -20.588600 22.291600 -0.000001 0.000005 4.421880 5.440990 -4.320560 12.994500 -0.242716 -4.980390 91.049900 -2.556650 -67.664500 -5.348130 -0.000001 -0.000004 -32.513200 -47.201500 -80.496500 -24.328900 0.000322 -0.000009 20.630100 0.032548 -89.914400 -22.291500 -0.000108 -0.000004 32.843800 5.400860 -2.965760 -2.192480 -6.469440 -0.000000 -175.055000 -6.276440 -4.416790 39.081100 -0.000007 -0.000012 -0.103382 0.260763 21.626300 40.985400 -0.000006 -0.000013 -0.678080 3.534360 -65.105400 11.754300 -0.000000 0.000003 -0.000033 -0.000391 -16.592800 -2.192510 6.469440 -0.000001 -178.976000 13.812200 177.965000 -39.081100 -0.002282 -0.040193 -0.000005 0.010151 18.162400 -40.985400 0.000008 0.000006 4.995390 7.467210 -64.706800 -11.754300 -0.000006 -0.000006 -0.007796 -0.086357 -20.089400
0.000000 0.000000 0.000000 0.000000 0.000000 -0.000000 -1.317270 92.553500 -1.406670 87.806700 -0.481409 2.369290 15.735700 0.000005 -0.000001 96.169500 86.260400 -96.918400 8.984550 -0.406207 -0.000000 -0.324085 0.856467 -1.494500 16.377300 -0.000001 -0.000001 3.918920 -3.209740 0.855397 6.456720 -0.000001 -0.000000 1.661730 -2.554020 -7.080120 12.994200 -0.242716 4.980390 -89.691900 -0.927837 -71.628400 5.348090 -0.000007 -0.000001 -67.812800 33.713100 -13.070800 24.328600 0.000019 0.000005 1.360730 3.549460 -20.990300 22.291600 -0.000001 0.000005 4.424630 5.443150 -4.396370 12.994500 -0.242716 -4.980390 91.052800 -2.560010 -67.635400 -5.348130 -0.000001 -0.000004 -32.028100 -46.552200 -80.367900 -24.328900 0.000322 -0.000009 21.626000 0.475406 -88.801700 -22.291500 -0.000108 -0.000004 33.094400 5.433520 -4.060290 -2.192480 -6.469440 -0.000000 -175.071000 -6.219140 -4.287050 39.081100 -0.000007 -0.000012 -0.101567 0.256678 21.588600 40.985400 -0.000006 -0.000013 -0.688798 3.495350 -65.116500 11.754300 -0.000000 0.000003 -0.000030 -0.000360 -16.591600 -2.192510 6.469440 -0.000001 -179.032000 13.874900 178.089000 -39.081100 -0.002282 -0.040193 -0.000897 0.012884 18.143000 -40.985400 0.000008 0.000006 4.915590 7.508970 -64.714400 -11.754300 -0.000006 -0.000006 -0.008012 -0.088130 -20.161800
0.000000 0.000000 0.000000 0.000000 0.000000 -0.000000 -1.316160 92.554900 -1.417820 87.792000 -0.350851 2.298020 15.735700 0.000005 -0.000001 97.209700 86.265500 -98.025900 8.984550 -0.406207 -0.000000 -0.348517 0.994924 -1.628500 16.377300 -0.000001 -0.000001 3.817400 -3.310020 1.054540 6.456720 -0.000001 -0.000000 1.783090 -2.891470 -6.716410 12.994200 -0.242716 4.980390 -89.709500 -0.872429 -71.581300 5.348090 -0.000007 -0.000001 -67.561400 34.101200 -13.605000 24.328600 0.000019 0.000005 1.218200 3.113090 -21.382900 22.291600 -0.000001 0.000005 4.540110 5.442510 -4.373900 12.994500 -0.242716 -4.980390 91.042500 -2.548640 -67.743700 -5.348130 -0.000001 -0.000004 -34.896300 -46.205400 -81.368000 -24.328900 0.000322 -0.000009 21.038000 1.555290 -85.963500 -22.291500 -0.000108 -0.000004 32.982500 5.428150 -3.875680 -2.192480 -6.469440 -0.000000 -175.073000 -6.108410 -4.404630 39.081100 -0.000007 -0.000012 -0.101182 0.255422 21.610400 40.985400 -0.000006 -0.000013 -0.676776 3.535820 -65.104200 11.754300 -0.000000 0.000003 -0.000034 -0.000400 -16.593100 -2.192510 6.469440 -0.000001 -179.001000 13.967600 178.017000 -39.081100 -0.002282 -0.040193 -0.000772 0.012512 18.127900 -40.985400 0.000008 0.000006 4.941500 7.481480 -64.705900 -11.754300 -0.000006 -0.000006 -0.007697 -0.085545 -20.056200
0.000000 0.000000 0.000000 0.000000 0.000000 -0.000000 -1.289280 92.562400 -1.424380 87.798200 -0.098541 2.264710 15.735700 0.000005 -0.000001 98.295800 86.253000 -99.193500 8.984550 -0.406207 -0.000000 -0.340708 1.144520 -1.790950 16.377300 -0.000001 -0.000001 3.713660 -3.359260 1.078010 6.456720 -0.000001 -0.000000 1.786160 -3.134610 -6.470100 12.994200 -0.242716 4.980390 -89.738300 -0.782822 -71.515700 5.348090 -0.000007 -0.000001 -67.411200 34.301200 -14.079700 24.328600 0.000019 0.000005 1.235020 3.089380 -21.801800 22.291600 -0.000001 0.000005 4.456940 5.444850 -4.456550 12.994500 -0.242716 -4.980390 91.007000 -2.477180 -67.869700 -5.348130 -0.000001 -0.000004 -40.211700 -46.199500 -83.302000 -24.328900 0.000322 -0.000009 19.312500 2.933580 -81.690900 -22.291500 -0.000108 -0.000004 33.149700 5.420760 -3.625340 -2.192480 -6.469440 -0.000000 -175.106000 -5.933260 -4.466840 39.081100 -0.000007 -0.000012 -0.101210 0.255955 21.575000 40.985400 -0.000006 -0.000013 -0.655448 3.568790 -65.060900 11.754300 -0.000000 0.000003 -0.000028 -0.000337 -16.590700 -2.192510 6.469440 -0.000001 -179.009000 14.178100 178.022000 -39.081100 -0.002282 -0.040193 0.001233 0.006409 18.074500 -40.985400 0.000008 0.000006 5.026300 7.413790 -64.707400 -11.754300 -0.000006 -0.000006 -0.007795 -0.086353 -20.089200
